<svg width="46" height="38" viewBox="0 0 46 38" fill="none" xmlns="http://www.w3.org/2000/svg">
<g id="Airplane Take Off / undefined / Glyph: undefined">
<path id="Vector" d="M15.9381 12.1156L14.4586 9.95591C12.6319 7.28916 14.5414 3.66666 17.7738 3.66666C18.6942 3.66666 19.5868 3.98264 20.3021 4.56176L25.2486 8.566C25.8418 7.93806 26.5497 7.26407 27.3382 6.656C28.6007 5.68261 30.2128 4.76717 31.9938 4.63003C36.2829 4.29977 39.4866 7.01335 41.2984 9.08935C42.2351 10.1626 42.4229 11.5197 42.0223 12.6981C41.6302 13.8517 40.6931 14.8 39.4504 15.2286L29.1563 18.778L23.0951 26.86C22.2811 27.9455 21.0036 28.5841 19.647 28.5841C16.9343 28.5841 14.8961 26.1081 15.4174 23.4459L15.899 20.9864L11.0502 22.0333C8.32391 22.6219 5.75 20.5444 5.75 17.7553V10.7423C5.75 8.95208 7.2013 7.50078 8.99156 7.50078C10.1778 7.50078 11.2693 8.14872 11.8373 9.19011L13.6887 12.5843L15.9381 12.1156ZM16.8305 8.33115L18.9877 11.4803L22.6268 10.7221C22.7993 10.6862 22.9701 10.6302 23.1368 10.5554L18.4932 6.79634C18.2897 6.63157 18.0357 6.54166 17.7738 6.54166C16.8541 6.54166 16.3108 7.57238 16.8305 8.33115ZM32.2146 7.49654C31.2438 7.57129 30.1681 8.10441 29.0937 8.93283C28.0408 9.74458 27.1241 10.7348 26.486 11.5035C25.6808 12.4735 24.5583 13.2565 23.2133 13.5367L13.2307 15.6163C12.6105 15.7457 11.9789 15.4536 11.6755 14.8975L9.31335 10.5668C9.24912 10.449 9.12569 10.3758 8.99156 10.3758C8.7891 10.3758 8.625 10.5399 8.625 10.7423V17.7553C8.625 18.7121 9.50807 19.4249 10.4434 19.2231L17.4258 17.7154C17.8984 17.6135 18.3906 17.7559 18.7358 18.0944C19.081 18.4328 19.2328 18.9224 19.1399 19.3967L18.2388 23.9983C18.0652 24.8847 18.7438 25.7091 19.647 25.7091C20.0987 25.7091 20.524 25.4965 20.7951 25.135L27.1208 16.7004C27.2931 16.4704 27.5306 16.2975 27.8022 16.2038L38.5131 12.5106C38.9417 12.3628 39.2027 12.0597 39.3003 11.7729C39.3892 11.5109 39.3582 11.2386 39.1322 10.9798C37.498 9.10717 35.1105 7.27355 32.2146 7.49654ZM7.1875 33.375C6.3936 33.375 5.75 34.0186 5.75 34.8125C5.75 35.6064 6.3936 36.25 7.1875 36.25H38.8125C39.6064 36.25 40.25 35.6064 40.25 34.8125C40.25 34.0186 39.6064 33.375 38.8125 33.375H7.1875Z" fill="#212121"/>
</g>
</svg>
